<svg id="warenkorb" version="1.1" xmlns="http://www.w3.org/2000/svg" xmlns:xlink="http://www.w3.org/1999/xlink" x="0px" y="0px"
	 width="647px" height="390px" viewBox="0 0 647 390" xml:space="preserve">
<path d="M359.505,301.826c0,6.275-5.714,11.361-12.763,11.361H120.335c-7.049,0-12.763-5.086-12.763-11.361l0,0
	c0-6.275,5.714-11.361,12.763-11.361h226.408C353.792,290.464,359.505,295.55,359.505,301.826L359.505,301.826z"/>
<path d="M165.616,300.837c-20.873,0-37.79,16.92-37.79,37.791c0,20.869,16.917,37.789,37.79,37.789
	s37.79-16.92,37.79-37.789C203.406,317.757,186.489,300.837,165.616,300.837z M165.369,357.646c-10.64,0-19.266-8.625-19.266-19.266
	s8.625-19.266,19.266-19.266s19.266,8.625,19.266,19.266S176.009,357.646,165.369,357.646z"/>
<path d="M307.884,300.837c-20.873,0-37.79,16.92-37.79,37.791c0,20.869,16.917,37.789,37.79,37.789
	c20.873,0,37.79-16.92,37.79-37.789C345.673,317.757,328.756,300.837,307.884,300.837z M307.637,357.646
	c-10.64,0-19.266-8.625-19.266-19.266s8.625-19.266,19.266-19.266s19.266,8.625,19.266,19.266S318.277,357.646,307.637,357.646z"/>
<path d="M381.146,67.276H95.717L76.945,26.675L11.739,0c0,0-22.723,6.916-4.939,23.711l49.398,21.736l67.182,191.666
	c0,0-4.94-3.951-25.688,60.268c0,0-3.952,15.807,19.76,15.807l18.771-57.303h193.643c0,0,12.844,1.977,12.844-12.844l53.161-161.039
	C395.871,82.001,397.847,67.276,381.146,67.276z M181.67,233.162h-30.627l-10.597-30.133h41.225V233.162z M181.67,178.329h-49.914
	l-12.163-34.579h62.077V178.329z M181.67,119.051h-70.764l-10.25-29.146h81.014V119.051z M266.636,233.162H206.37v-30.133h60.266
	V233.162z M266.636,178.329H206.37V143.75h60.266V178.329z M266.636,119.051H206.37V89.905h60.266V119.051z M319.986,233.162
	h-28.651v-30.133h38.625L319.986,233.162z M338.139,178.329h-46.803V143.75h58.25L338.139,178.329z M357.761,119.051h-66.426V89.905
	h76.074L357.761,119.051z"/>
<rect x="399.025" y="178.823" fill="none" width="247.981" height="211.426"/>
<text transform="matrix(1 0 0 1 399.0249 306.1519)" font-family="'ArialMT'" font-size="177.8351">+</text>
</svg>
